<?xml version="1.0" encoding="UTF-8"?>
<svg version="1.1" viewBox="0 0 2048 2048" width="750" height="750" xmlns="http://www.w3.org/2000/svg">
<path transform="translate(964,912)" d="m0 0h132l3 4 14 51 16 57 13 47 13 45v2l4-4 4-11 15-54 15-55 18-65 4-15 2-2h132l1 4-1 332-1 1-28 1h-58l-5-3-1-202-1-4-5 14-19 67-10 37-15 53-9 32-4 6h-72l-4-5-12-42-13-47-7-26-15-53-6-21-6-16-1 4v81l1 48v75l-4 2h-33l-56-1-2-6v-330z" fill="#F7D15E"/>
<path transform="translate(749,512)" d="m0 0h33l43 2 42 6 29 6 32 9 15 6 19 9 24 6h62l20-1 20-6 19-9 15-6 16-5 22-5 27-5 35-5 37-2h32l71 2 36 2 49 4 34 4 4 2-1 35-1 14-2 4-15 10-6 9-5 11-9 50-7 30-9 30-7 19-9 19-7 11-8 10-9 10-19 13-16 8-16 6-22 5-16 2h-35l-32-4-27-6-27-8-21-9-15-9-10-8-16-16-10-13-14-22-14-26-10-24-9-27-6-23-7-13-7-4-7-3-12-1-14 3-6 4-6 7-4 9-9 34-8 22-8 18-12 22-16 24-13 16-9 10-12 10-15 9-17 8-27 9-26 6-28 4-14 1h-30l-25-3-19-5-18-8-14-8-17-13-9-10-9-13-9-17-10-25-7-22-10-41-9-51-5-10-8-9-12-8-2-3-1-11-1-26v-13l6-2 41-5 48-4 17-1zm-10 28-19 1-20 3-15 4-13 5-15 8-11 9-8 10-8 16-3 12v26l2 22 5 30 6 21 6 15 8 16 6 9 10 13 9 10 14 11 8 5 17 6 20 5 9 1h45l17-2 28-6 17-5 22-9 15-10 6-5v-2h2l7-8 10-11 10-15 8-14 8-18 6-21 3-19v-41l-2-12-5-14-7-11-6-7-14-10-21-9-21-6-14-2-13-1zm468 0-27 2-20 4-21 8-15 9-10 9-6 8-5 10-5 19-1 5v39l4 21 9 27 11 22 14 21 11 13 12 10 14 8 19 8 23 8 29 6 10 1h45l15-2 21-5 18-8 11-8 10-9 9-10 12-18 7-12 8-20 6-20 4-21 2-20 1-18v-15l-3-16-8-16-9-11-12-9-17-9-19-6-21-3-31-2zm-612 11-6 2-1 6 2 2h36l1-1v-6l-3-2zm830 1-3 2v5l3 2h35l1-1v-6l-2-2z" fill="#F7D15E"/>
<path transform="translate(1551,911)" d="m0 0h29l13 1 3 4 18 52 13 36 20 55 23 64 22 62 16 45 6 17-1 2-13 1h-92l-4-4-7-21-5-19-111-2-2 10-9 32-4 4h-102l-2-1 1-7 7-19 10-28 12-34 9-26 9-24 11-31 14-39 11-30 7-21 9-25 17-48 3-5zm-15 104-8 26-12 41-12 44-1 8 2 1h65l2-2-1-7-16-55-14-48-3-8z" fill="#F7D15E"/>
<path transform="translate(761,911)" d="m0 0 71 1 4 9 16 45 19 53 13 36 10 28 18 50 20 57 11 30 8 23v6l-15 1h-90l-3-2-8-26-5-16v-2h-110l-3 11-8 30-2 4-2 1h-101l-4-2 2-9 20-54 9-26 50-140 11-29 13-38 13-37 2-3zm13 107-4 10-16 55-11 41-1 10 19 1h48l1-4-4-17-10-34-16-55-4-7z" fill="#F7D15E"/>
<path transform="translate(765,1280)" d="m0 0h88l11 19 14 25 13 23 10 18 16 28 16 29 10 18 24 42 15 27 13 23 12 22 10 17 6 10h2l16-28 13-23 15-27 16-28 30-54 13-23 14-25 13-23 14-25 12-21 11-19 4-5h76l10 1-8 16-28 49-14 24-12 22-13 23-16 29-14 25-20 36-13 23-14 25-11 19-14 25-12 21-42 75-14 24-11 20h-4l-12-21-15-27-13-23-10-18-13-23-14-25-16-29-13-23-16-28-12-22-13-23-14-24-13-24-13-23-14-25-13-23-16-28-15-26-12-20z" fill="#054A87"/>
<path transform="translate(365,912)" d="m0 0h261l1 1v74l-1 3h-151l1 59 5 2 114 1 1 2v71l-2 5-118 1-1 119h-110l-1-1v-336z" fill="#F7D15E"/>
<path transform="translate(334,512)" d="m0 0h198l1 1v75l-1 1h-67l13 24 13 23 15 27 16 28 14 25 15 27 39 69 14 25 14 24 10 18v2h-78l-9-1-4-5-16-29-15-26-11-20-13-23-14-25-14-24-14-26-13-23-14-25-14-24-15-27-14-24-13-24-14-24-9-16z" fill="#064A87"/>
<path transform="translate(1516,512)" d="m0 0h196l2 2-14 25-11 19-12 22-28 50-14 24-40 72-24 42-15 27-16 28-14 25-13 23-6 8-1 1-19 1h-67l2-6 16-28 26-46 14-25 13-23 15-27 16-28 15-27 12-21 15-27 14-25 4-8-66-1-1-1v-75z" fill="#064A87"/>
<path transform="translate(1023,1389)" d="m0 0h2l7 19 4 12 2 1 32 1-2 4-8 7-13 9-3 1 6 23 2 7v4l-6-2-14-10-6-4-5 1-11 7-9 6-5 2 1-9 6-19v-5l-13-10-8-6-4-4v-2l32-1 3-3 9-28z" fill="#F7D15E"/>
<path transform="translate(1562,1397)" d="m0 0 9 2 6 4 6 8-1 9-7 12-12 13-10 11-1 2h26l-1 5-5 8-12-1-11-2h-9l-5 3-4-1-3-7 3-3 8-4 9-10 10-13 8-13 2-5-1-5-2-2-4 1-3 3h-2l-2 4-1 4v6l-7 5-4-1-4-6-1-5 5-8 8-8 8-5z" fill="#0C4E8A"/>
<path transform="translate(1442,1398)" d="m0 0h10l8 4 6 5 2 3 1 10-3 15-6 15-10 15-5 6-5-1-6-4 1-4 8-10 2-4h-7l-9-4-5-4-3-5v-9l8-16 9-10zm5 9-6 7-5 11-1 9 3 5 5 1 8-4 3-7 2-7v-11l-4-4z" fill="#0D508B"/>
<path transform="translate(561,1398)" d="m0 0h10l8 5 5 6-3 9-4 7-5-1-3-2 1-14-3-1-5 2-8 16 1 5 8 5 11 6 3 4-1 9-8 11-8 5-3 1h-9l-8-4-5-4-3-5 1-7 6-7 5 2 2 2v9l4 5 5-1 5-5 2-4-1-5-16-10-5-5-1-2v-8l4-8 9-10z" fill="#0E508B"/>
<path transform="translate(1501,1398)" d="m0 0h9l10 5 6 7 1 2v12l-4 15-8 17-7 9-6 6-5-2-5-3 2-4 10-14-13-2-8-6-3-3-1-9 5-12 6-9 5-5zm6 8-5 4-7 14-2 6 1 6 5 4 10-3 4-9 2-11-1-7-5-4z" fill="#0A4D8A"/>
<path transform="translate(506,1397)" d="m0 0 8 1 6 3 5 5v6l-6 10-4-2-4-4 2-5v-4h-6l-7 8-1 7 12 8-2 4-13 11-6 8v5l5 5 5-1 5-2 2-4 5-6 4 1 3 4-2 6-7 8-5 2h-11l-10-5-6-7-2-8 4-8 7-8 5-4-2-4-5-8 3-9 6-7 8-5z" fill="#10528C"/>
<path transform="translate(605,1399)" d="m0 0h48l-2 7-5 2-13 1-6 21-8 29-6 9-4 3-4-2-4-5 5-10 8-29 5-17-10 1-3 2v7l1 7-5 4-7-8-2-4 1-6 7-9z" fill="#0C4F8B"/>
<path transform="translate(1406,1399)" d="m0 0 4 1 5 3-1 6-7 23-8 30-3 8h-4l-6-4-1-3 8-31 3-9-7 1-4-6v-4l15-9 4-2z" fill="#0E508B"/>
<path transform="translate(642,1457)" d="m0 0 6 1 3 4-1 5-3 4-5-1-4-5 2-6z" fill="#11528D"/>
</svg>
